<svg xmlns="http://www.w3.org/2000/svg" viewBox="0 0 1200 675" role="img" aria-labelledby="t d"><title id="t">Workflow 3D tisku</title><desc id="d">Redakční ilustrace procesu model, slicer, tisk a kontrola dílu.</desc><rect width="1200" height="675" rx="36" fill="#111318"/><text x="70" y="90" font-family="Arial" font-size="34" font-weight="700" fill="#f5f5f7">OD MODELU K HOTOVÉMU DÍLU</text><g fill="none" stroke="#f5f5f7" stroke-width="7" stroke-linejoin="round"><path d="M105 245l95-55 95 55v110l-95 55-95-55z"/><path d="M390 210h180v180H390z"/><path d="M430 250h100M430 290h70M430 330h120"/><path d="M685 390V210h170v180zM720 340h100M750 210v75"/><path d="M980 210l100 55v120l-100 55-100-55V265z"/></g><g fill="#ff6b35" font-family="Arial" font-size="22" font-weight="700" text-anchor="middle"><text x="200" y="485">MODEL</text><text x="480" y="485">SLICER</text><text x="770" y="485">TISK</text><text x="980" y="485">KONTROLA</text></g><g stroke="#ff6b35" stroke-width="8" stroke-linecap="round"><path d="M310 300h60M590 300h70M875 300h55"/></g><text x="70" y="610" font-family="Arial" font-size="20" fill="#9ca1ac">Redakční procesní ilustrace · První Vrstva</text></svg>