<svg xmlns="http://www.w3.org/2000/svg" viewBox="0 0 1200 675"><rect width="1200" height="675" fill="#f7f7f5"/><text x="60" y="80" font-family="Arial" font-size="48" font-weight="700">Čistý plát, ale první vrstva stále nedrží?</text><g font-family="Arial"><rect x="410" y="125" width="380" height="85" rx="20" fill="#eaf4ff"/><text x="600" y="180" text-anchor="middle" font-size="31" font-weight="700">Pokračujte diagnostikou</text><path d="M600 210 V275 M600 275 H170 M600 275 H1030" stroke="#555" stroke-width="6" fill="none"/><path d="M170 275 V330 M455 275 V330 M745 275 V330 M1030 275 V330" stroke="#555" stroke-width="6"/><rect x="55" y="330" width="230" height="170" rx="22" fill="#fff4df"/><rect x="340" y="330" width="230" height="170" rx="22" fill="#edf8ef"/><rect x="630" y="330" width="230" height="170" rx="22" fill="#fff1ee"/><rect x="915" y="330" width="230" height="170" rx="22" fill="#f1ecff"/><text x="170" y="390" text-anchor="middle" font-size="27" font-weight="700">Z-offset</text><text x="170" y="435" text-anchor="middle" font-size="22">výška trysky</text><text x="455" y="390" text-anchor="middle" font-size="27" font-weight="700">Materiál</text><text x="455" y="435" text-anchor="middle" font-size="22">profil a teplota</text><text x="745" y="390" text-anchor="middle" font-size="27" font-weight="700">Warping</text><text x="745" y="435" text-anchor="middle" font-size="22">geometrie / brim</text><text x="1030" y="390" text-anchor="middle" font-size="27" font-weight="700">Extruze</text><text x="1030" y="435" text-anchor="middle" font-size="22">tryska / tok</text><text x="60" y="620" font-size="22" fill="#555">Diagnostický strom • První Vrstva</text></g></svg>